<?xml version="1.0" standalone="no"?>
<!DOCTYPE svg PUBLIC "-//W3C//DTD SVG 20010904//EN"
 "http://www.w3.org/TR/2001/REC-SVG-20010904/DTD/svg10.dtd">
<svg version="1.0" xmlns="http://www.w3.org/2000/svg"
 width="460.000000pt" height="460.000000pt" viewBox="0 0 460.000000 460.000000"
 preserveAspectRatio="xMidYMid meet">
<metadata>
Created by potrace 1.11, written by Peter Selinger 2001-2013
</metadata>
<g transform="translate(0.000000,460.000000) scale(0.100000,-0.100000)"
fill="#000000" stroke="none">
<path d="M0 2300 l0 -2300 2300 0 2300 0 0 2300 0 2300 -2300 0 -2300 0 0
-2300z m1617 926 c15 -13 60 -83 98 -155 39 -72 73 -131 78 -131 4 0 28 13 54
29 26 17 49 29 50 27 2 -2 -34 -89 -79 -194 l-83 -192 -222 0 c-123 0 -223 2
-223 4 0 2 23 18 50 36 28 18 50 35 50 39 0 20 -266 502 -292 528 l-32 33 261
0 261 0 29 -24z m2117 2 c20 -18 67 -146 225 -608 110 -322 204 -597 210 -612
l10 -27 57 25 c31 14 58 24 59 22 1 -2 -44 -77 -102 -168 -57 -91 -107 -171
-111 -178 -6 -10 -53 -6 -225 20 -119 18 -217 35 -217 39 0 4 24 17 53 29 28
12 53 23 55 25 3 3 -475 1330 -492 1363 -8 16 -27 44 -42 61 l-26 31 261 0
c255 0 260 0 285 -22z m-664 -44 c52 -26 100 -89 130 -170 17 -43 30 -85 30
-91 0 -9 -230 -450 -246 -471 -5 -8 -389 240 -389 251 0 6 49 103 108 214 118
220 154 265 231 281 47 10 100 5 136 -14z m-2078 -15 c46 -23 74 -61 127 -166
l41 -83 -197 -610 -197 -610 -234 0 -234 0 6 23 c3 12 98 327 210 701 214 710
214 708 281 744 67 35 129 35 197 1z m1060 -798 l115 -214 -40 -73 c-22 -40
-53 -89 -70 -110 -75 -91 -214 -98 -300 -16 -30 29 -221 376 -215 392 5 15
382 249 390 241 3 -3 58 -102 120 -220z m779 -60 c103 -229 101 -220 48 -184
-24 16 -49 33 -56 36 -7 5 -37 -42 -84 -128 -41 -75 -84 -146 -97 -158 -23
-21 -31 -22 -290 -25 l-267 -3 33 34 c17 18 92 145 166 283 l133 249 -56 38
-56 37 224 -2 224 -3 78 -174z"/>
</g>
</svg>
